<svg width="300" height="300" viewBox="0 0 300 300" fill="none" xmlns="http://www.w3.org/2000/svg"><rect width="300" height="300" rx="30" fill="#fff"/><path d="M150 183.338c18.409 0 33.332-14.923 33.332-33.332S168.409 116.674 150 116.674s-33.332 14.924-33.332 33.332 14.924 33.332 33.332 33.332" fill="#C4D6B0"/><path d="M116.668 50.002H76.833C62.013 50.002 50 62.015 50 76.834v13.003c0 14.82 12.013 26.833 26.833 26.833h39.835z" fill="#FCDE9C"/><path d="M183.337 250.006h-66.669L150 183.338zm-51.729-9.96h36.784L150 203.262z" fill="#C4D6B0"/><path d="m149.999 50 33.333 33.334-33.334 33.332-33.333-33.334z" fill="#FFA552"/><path d="M116.668 183.338H50V116.67h66.668zm-59.441-7.227h52.214v-52.214H57.227z" fill="#381D2A"/><path d="M196.335 183.338h-13.003V50.002h13.003c29.64 0 53.665 24.026 53.665 53.665v26.002c.005 29.643-24.025 53.669-53.665 53.669" fill="#BA5624"/><path d="M76.833 250.006h39.835V210.17c0-14.818-12.013-26.832-26.832-26.832H76.833C62.013 183.338 50 195.352 50 210.17v13.003c0 14.82 12.013 26.833 26.833 26.833m119.502-66.668h-13.003v66.668H250v-13.003c.005-29.639-24.025-53.665-53.665-53.665" fill="#381D2A"/></svg>